<svg width="30" height="29" viewBox="0 0 30 29" fill="none" xmlns="http://www.w3.org/2000/svg">
<path d="M28.9119 17.845L25.3702 23.9791C24.6761 25.1975 23.3869 25.835 22.0836 25.75H19.2502V28.5833L15.7086 22.2083L19.2502 15.8333V18.6666H23.2452L20.1002 13.2125L26.2344 9.67079L28.7844 14.0908C29.5211 15.1816 29.6202 16.6408 28.9119 17.845ZM11.0477 0.334961H18.1311C19.5194 0.334961 20.7236 1.14246 21.3044 2.30413L22.7211 4.76913L25.1719 3.35246L21.4319 9.59996L14.1361 9.72746L16.5869 8.31079L14.5894 4.83996L11.4586 10.2941L5.31022 6.75246L7.86022 2.33246C8.44105 1.15663 9.64522 0.334961 11.0477 0.334961ZM5.15439 23.9933L1.61272 17.8591C0.918555 16.655 1.01772 15.21 1.74022 14.1191L3.15689 11.6683L0.706055 10.2516L7.98772 10.365L11.7419 16.6266L9.29105 15.21L7.29355 18.6666H13.5836V25.75H8.48355C7.81985 25.798 7.15599 25.6588 6.56746 25.3483C5.97893 25.0377 5.48935 24.5683 5.15439 23.9933Z" fill="url(#paint0_linear_860_1536)"/>
<defs>
<linearGradient id="paint0_linear_860_1536" x1="15.0497" y1="0.334961" x2="15.0497" y2="28.5833" gradientUnits="userSpaceOnUse">
<stop stop-color="#84D61F"/>
<stop offset="1" stop-color="#0085BE"/>
</linearGradient>
</defs>
</svg>
